<?xml version="1.0" encoding="utf-8"?>
<!-- Generator: Adobe Illustrator 21.0.2, SVG Export Plug-In . SVG Version: 6.00 Build 0)  -->
<svg version="1.1" id="Layer_1" xmlns="http://www.w3.org/2000/svg" xmlns:xlink="http://www.w3.org/1999/xlink" x="0px" y="0px"
	 viewBox="0 0 541.9 87" style="enable-background:new 0 0 541.9 87;" xml:space="preserve">
<path d="M58.5,21.1v42h-4.4V24.9H27.5v38.2h-4.4v-42H58.5z"/>
<path d="M137,35.5c0,8.9-6.5,14.3-17.2,14.3h-11.3v13.3h-4.4v-42h15.7C130.5,21.1,137,26.5,137,35.5z M132.5,35.5
	c0-6.7-4.4-10.6-12.8-10.6h-11.2v21h11.2C128.1,45.9,132.5,42.1,132.5,35.5z"/>
<path d="M257,42.1c0-12.3,9.4-21.4,22-21.4c6.1,0,11.6,2,15.4,6.1l-2.8,2.8c-3.4-3.5-7.6-5-12.4-5c-10.1,0-17.8,7.4-17.8,17.4
	s7.6,17.4,17.8,17.4c4.8,0,9-1.5,12.4-5l2.8,2.8c-3.7,4.1-9.2,6.2-15.4,6.2C266.4,63.5,257,54.4,257,42.1z"/>
<path d="M362.5,24.9h-14.8v38.2h-4.4V24.9h-14.8v-3.8h33.9V24.9z"/>
<path d="M517.1,35.5c0,8.9-6.5,14.3-17.2,14.3h-11.3v13.3h-4.4v-42H500C510.6,21.1,517.1,26.5,517.1,35.5z M512.7,35.5
	c0-6.7-4.4-10.6-12.8-10.6h-11.2v21h11.2C508.2,45.9,512.7,42.1,512.7,35.5z"/>
<path d="M423.3,20.9v4c8.5,1.4,14.4,8.2,14.4,17.1c0,10-7.5,17.4-17.6,17.4c-10.1,0-17.7-7.4-17.7-17.4c0-8.9,6-15.8,14.5-17.1v-4
	c-11,1.4-18.9,10-18.9,21.1c0,12.2,9.4,21.4,22.1,21.4c12.6,0,22-9.1,22-21.4C442.2,30.9,434.3,22.3,423.3,20.9z"/>
<path d="M196.6,20.7c-12.7,0-22.1,9.1-22.1,21.4c0,11.2,7.8,19.8,18.9,21.2v-4c-8.5-1.4-14.5-8.2-14.5-17.1c0-10,7.6-17.4,17.7-17.4
	c10.1,0,17.6,7.4,17.6,17.4c0,8.9-6,15.8-14.4,17.1v4c11-1.4,18.9-9.9,18.9-21.2C218.6,29.8,209.2,20.7,196.6,20.7z"/>
</svg>
